<svg xmlns="http://www.w3.org/2000/svg" width="24" height="24" viewBox="0 0 24 24" fill="none">
  <path d="M4.07495 3L5.51753 19.1952L11.9905 21L18.4816 19.1886L19.9254 3H4.07495ZM16.9284 6.71038L16.4483 12.1055L16.4497 12.1346L16.4477 12.2016V12.2011L16.1065 15.9734L16.0689 16.3086L12.0002 17.4339L11.997 17.4368L7.93526 16.3051L7.66023 13.1863H9.65201L9.79332 14.7722L12.0007 15.3704L12.0002 15.3716V15.3713L14.2157 14.7646L14.4499 12.182H9.81829L9.77854 11.7454L9.68802 10.7226L9.64053 10.1734H14.6259L14.8073 8.16487H7.21404L7.1743 7.72858L7.08392 6.70551L7.03629 6.15631H16.9759L16.9284 6.71038Z" fill="#3996DB"/>
</svg>