<svg xmlns="http://www.w3.org/2000/svg" width="24" height="24" viewBox="0 0 24 24" fill="none">
  <path d="M9.63324 0.979824L8.46858 2.14442L10.0666 3.7424L11.74 5.41567C12.1211 5.22714 12.5441 5.139 12.9688 5.1596C13.3935 5.18019 13.8059 5.30884 14.167 5.53336C14.5281 5.75788 14.8259 6.07084 15.0322 6.44261C15.2386 6.81439 15.3466 7.23267 15.3461 7.65786C15.3371 8.03729 15.2487 8.41062 15.0867 8.75385L16.8103 10.4271C17.2623 10.166 17.7913 10.0707 18.306 10.1578C18.8207 10.2448 19.2889 10.5087 19.6299 10.904C19.8682 11.1325 20.0566 11.4078 20.1833 11.7126C20.31 12.0174 20.3723 12.3451 20.3662 12.6752C20.3667 13.3342 20.1097 13.9674 19.65 14.4396C19.4187 14.6812 19.1399 14.8723 18.8312 15.0011C18.5225 15.1298 18.1905 15.1933 17.8561 15.1876C17.5253 15.1928 17.1969 15.131 16.8906 15.0059C16.5844 14.8808 16.3066 14.695 16.074 14.4597C15.68 14.1159 15.4178 13.6458 15.3323 13.1299C15.2468 12.614 15.3434 12.0844 15.6055 11.6319L13.9321 9.90841C13.8476 9.94664 13.761 9.98016 13.6727 10.0088V15.3465C14.1585 15.5196 14.5792 15.838 14.8776 16.2585C15.1821 16.6765 15.3462 17.1803 15.3461 17.6975C15.3527 18.0288 15.2908 18.3579 15.1644 18.6643C15.038 18.9706 14.8498 19.2476 14.6115 19.4779C14.1559 19.9329 13.5418 20.1941 12.898 20.2066C12.4327 20.2211 11.9727 20.1052 11.5699 19.8719C11.1671 19.6386 10.8377 19.2972 10.6188 18.8864C10.3999 18.4756 10.3004 18.0118 10.3315 17.5474C10.3625 17.0829 10.5229 16.6365 10.7946 16.2585C11.093 15.838 11.5136 15.5196 11.9994 15.3465V10.0088C11.5126 9.83775 11.0913 9.51893 10.7946 9.09687C10.4889 8.67942 10.3248 8.17521 10.326 7.65786C10.3253 7.27724 10.4142 6.90179 10.5854 6.56186L7.32233 3.29898L0.98113 9.63399C0.670159 9.94471 0.423455 10.3136 0.25511 10.7197C0.086765 11.1258 7.77497e-05 11.5611 5.22762e-08 12.0007C-7.76451e-05 12.4403 0.0864558 12.8755 0.254657 13.2817C0.422859 13.6878 0.669433 14.0569 0.980293 14.3677L9.63324 23.0202C10.2608 23.6476 11.1119 24 11.9994 24C12.8868 24 13.7379 23.6476 14.3655 23.0202L23.0201 14.366C23.6475 13.7384 24 12.8874 24 12C24 11.1126 23.6475 10.2616 23.0201 9.63399L14.3655 0.979824C13.7379 0.352443 12.8868 0 11.9994 0C11.1119 0 10.2608 0.352443 9.63324 0.979824Z" fill="#E64A19"/>
</svg>