<svg xmlns="http://www.w3.org/2000/svg" width="24" height="24" viewBox="0 0 24 24" fill="none">
  <path d="M12.5609 18.9433C12.3876 18.7901 12.2068 18.6363 12.034 18.4659C11.8959 18.5936 11.7665 18.7132 11.6296 18.8322C9.91994 20.306 8.15773 20.9196 7.11311 20.3231C6.10259 19.7523 5.78424 18.066 6.18868 15.9445C6.23182 15.7145 6.28363 15.4846 6.3441 15.2546C6.16268 15.2012 5.98992 15.1521 5.81717 15.0944C3.66612 14.3602 2.25 13.1678 2.25 11.9749C2.25 10.8253 3.57137 9.70926 5.63517 8.99373C5.86628 8.91684 6.1101 8.84048 6.36085 8.77213C6.30308 8.55053 6.25743 8.33747 6.2141 8.13136C5.78193 5.97783 6.0841 4.25736 7.10329 3.678C8.16524 3.06446 9.92745 3.72072 11.6972 5.26231C11.8006 5.35575 11.9046 5.45827 12.0167 5.56026C12.1808 5.40701 12.3362 5.25376 12.5003 5.1176C14.1758 3.67586 15.8421 3.073 16.8613 3.65237C17.9232 4.24829 18.2347 6.08837 17.7597 8.3631C17.7337 8.50835 17.702 8.64451 17.665 8.79029C17.8811 8.85009 18.0966 8.91791 18.2953 8.98626C20.4025 9.70178 21.7672 10.8178 21.7498 11.9931C21.7498 13.194 20.2904 14.3783 18.0521 15.111C17.9313 15.1451 17.8106 15.1879 17.6892 15.2215C17.7412 15.3918 17.7753 15.5622 17.81 15.7325C18.2589 17.9389 17.9134 19.7448 16.8688 20.3413C16.5945 20.4939 16.279 20.5717 15.9588 20.5655C15.0014 20.5639 13.7858 19.9814 12.5609 18.9433ZM14.2538 15.8169C13.7577 16.5301 13.2126 17.213 12.6216 17.8615C12.7857 18.0217 12.9498 18.1685 13.1139 18.3047C14.5387 19.5141 15.8514 19.9659 16.4649 19.6167C16.6523 19.4675 16.8054 19.2851 16.9152 19.0803C17.025 18.8755 17.0891 18.6524 17.104 18.4243C17.2286 17.5789 17.1934 16.72 17 15.8858C16.974 15.7325 16.9422 15.5793 16.8965 15.4175C16.0264 15.6057 15.1435 15.7391 14.2538 15.8169ZM7.01663 16.0897C6.66303 17.9053 6.92187 19.2584 7.53662 19.6081C7.75442 19.6922 7.98957 19.7311 8.2254 19.7218C8.46124 19.7126 8.692 19.6555 8.90132 19.5547C9.71565 19.2384 10.4573 18.7815 11.0865 18.2086C11.2159 18.106 11.3366 17.987 11.4666 17.8679C10.8627 17.2192 10.3031 16.5363 9.79109 15.8233C8.90481 15.7549 8.02469 15.63 7.15703 15.4495C7.10329 15.6722 7.05996 15.8847 7.01663 16.0897ZM12.0433 17.2821C12.4234 16.8645 12.803 16.4048 13.1832 15.8938C12.803 15.9109 12.4061 15.9194 12.0086 15.9194C11.6111 15.9194 11.2401 15.9109 10.8686 15.8938C11.2569 16.3957 11.6463 16.8645 12.0433 17.2821ZM10.229 8.9681C9.90087 9.4364 9.58136 9.92926 9.27919 10.4504C8.97701 10.9614 8.70141 11.481 8.45008 11.9989C8.7095 12.51 8.98568 13.0295 9.28785 13.5582C9.59003 14.0692 9.90954 14.5727 10.2377 15.0485C10.8074 15.0827 11.4037 15.1019 12.008 15.1019C12.6124 15.1019 13.2167 15.0848 13.7956 15.0426C14.1065 14.5743 14.426 14.0713 14.7287 13.5518C15.0315 13.0322 15.3158 12.5041 15.5665 11.9931C15.3158 11.4906 15.0309 10.971 14.7287 10.451C14.4266 9.93086 14.1071 9.4364 13.7875 8.96863C13.2098 8.92592 12.6129 8.90029 12.0086 8.90029C11.4042 8.90029 10.808 8.92538 10.229 8.9681ZM7.37947 14.6667C7.972 14.7918 8.57173 14.8857 9.17577 14.9481C8.96834 14.6245 8.7615 14.3004 8.56275 13.9597C8.37266 13.6276 8.18257 13.2954 8.00982 12.9633C7.75964 13.5421 7.55222 14.114 7.37947 14.6667ZM15.4538 13.9512C15.2551 14.2918 15.0563 14.6154 14.8582 14.931C15.4713 14.86 16.0796 14.7577 16.6805 14.6245C16.4929 14.0495 16.2738 13.4836 16.0241 12.9291C15.8427 13.2698 15.6526 13.6105 15.4538 13.9512ZM5.90268 9.77707C4.14105 10.3906 3.0791 11.284 3.0791 11.9835C3.11269 12.2085 3.19403 12.4252 3.31847 12.6211C3.4429 12.817 3.60797 12.9883 3.80421 13.1251C4.47823 13.6489 5.25116 14.0532 6.0841 14.3175C6.23952 14.3709 6.40361 14.4115 6.5677 14.4627C6.83297 13.6248 7.15307 12.8026 7.52622 12.0006C7.15235 11.2123 6.83505 10.4021 6.57636 9.57523C6.34333 9.6329 6.11877 9.70018 5.90268 9.77707ZM16.499 11.9835C16.8822 12.7753 17.2103 13.589 17.4812 14.4195C17.5939 14.3853 17.706 14.3511 17.8094 14.3169C19.7351 13.6868 20.9294 12.7241 20.9358 11.9744C20.9358 11.2759 19.8305 10.3725 18.0255 9.75945C17.8441 9.70018 17.6459 9.64038 17.4477 9.58057C17.1861 10.3991 16.8692 11.2016 16.499 11.9835ZM15.4458 10.0243C15.6445 10.365 15.8346 10.6976 16.0068 11.0298C16.2467 10.487 16.4543 9.9324 16.6285 9.36858C16.0419 9.23686 15.448 9.13454 14.8495 9.06208C15.0569 9.37659 15.2557 9.69217 15.4458 10.0243ZM7.38813 9.36164C7.56147 9.90683 7.76831 10.4606 8.00982 11.0308C8.18315 10.6987 8.37266 10.3666 8.56275 10.0345C8.75283 9.70232 8.95101 9.37873 9.15843 9.06315C8.53675 9.13844 7.94973 9.24043 7.38813 9.36164ZM13.0445 5.74128C12.8978 5.8689 12.751 6.00507 12.6037 6.14176C13.2034 6.78226 13.7545 7.46024 14.2532 8.17087C15.1321 8.24928 16.0037 8.38597 16.8613 8.5799C16.896 8.45228 16.9191 8.32412 16.948 8.1965C17.3524 6.23735 17.1034 4.73794 16.447 4.36362C16.303 4.28889 16.1395 4.25196 15.9744 4.25683C15.269 4.25362 14.1862 4.76144 13.0445 5.73968V5.74128ZM7.51756 4.38498C6.90454 4.7342 6.66245 6.13108 7.02529 7.97117C7.06863 8.16714 7.11196 8.36257 7.16338 8.56708C8.02217 8.38029 8.89344 8.2465 9.77145 8.1666C10.2719 7.45508 10.826 6.77703 11.4297 6.13749C11.3349 6.04351 11.2309 5.95861 11.1361 5.87317C9.93438 4.82284 8.77883 4.26858 8.02426 4.26858C7.84692 4.26299 7.67142 4.3033 7.51756 4.38498ZM13.1653 8.09879C12.8091 7.62254 12.4249 7.16477 12.0144 6.72754C11.6261 7.14457 11.2373 7.60486 10.8588 8.09879C11.239 8.0817 11.6186 8.07316 12.0074 8.07316C12.3963 8.07316 12.7851 8.0801 13.1653 8.09879ZM10.281 12.0176C10.2729 11.7987 10.3117 11.5804 10.395 11.3754C10.4784 11.1703 10.6047 10.9824 10.7667 10.8226C10.9287 10.6627 11.1233 10.5339 11.3393 10.4437C11.5553 10.3534 11.7884 10.3035 12.0253 10.2966C12.5034 10.3117 12.9554 10.5013 13.2824 10.8239C13.6094 11.1465 13.7846 11.5758 13.7696 12.0176C13.7851 12.4598 13.61 12.8896 13.2828 13.2126C12.9557 13.5356 12.5032 13.7253 12.0248 13.7402C11.7877 13.7334 11.5545 13.6834 11.3384 13.593C11.1223 13.5027 10.9277 13.3738 10.7657 13.2137C10.6037 13.0537 10.4775 12.8656 10.3943 12.6604C10.3111 12.4551 10.2726 12.2367 10.281 12.0176Z" fill="#3996DB"/>
</svg>